<svg xmlns="http://www.w3.org/2000/svg" viewBox="0 0 1000 1000" fill="none">
  <!-- Container: portfolio body background, iOS-style squircle radius -->
  <rect width="1000" height="1000" rx="220" fill="#f0ede8"/>
  <!-- Gradient logo, centered with breathing room -->
  <g transform="translate(200 328.57) scale(0.7792)">
    <path d="M220 0C285.709 0 344.689 28.8074 385.001 74.4814C392.781 65.6603 401.281 57.4487 410.434 49.9375C438.4 26.9857 471.596 11.2858 507.08 4.22754C542.564 -2.83065 579.241 -1.0295 613.862 9.47266C648.484 19.9749 679.981 38.854 705.563 64.4365L627.781 142.218C614.99 129.427 599.242 119.987 581.932 114.736C564.621 109.485 546.282 108.584 528.54 112.113C510.798 115.642 494.2 123.493 480.217 134.969C466.233 146.445 455.296 161.193 448.373 177.905C441.451 194.618 438.756 212.78 440.529 230.782C442.302 248.784 448.488 266.072 458.538 281.112C468.588 296.153 482.193 308.484 498.146 317.012C514.1 325.539 531.91 330 550 330V440C513.821 440 478.2 431.077 446.293 414.022C423.062 401.605 402.322 385.155 385.002 365.517C344.69 411.192 285.71 440 220 440C98.4974 440 0 341.503 0 220C0 98.4974 98.4974 0 220 0ZM715 330C745.376 330 770 354.624 770 385C770 415.376 745.376 440 715 440C684.624 440 660 415.376 660 385C660 354.624 684.624 330 715 330ZM220 110C159.249 110 110 159.249 110 220C110 280.751 159.249 330 220 330C280.751 330 330 280.751 330 220C330 159.249 280.751 110 220 110Z" fill="url(#fav_gradient)"/>
  </g>
  <defs>
    <linearGradient id="fav_gradient" x1="200" y1="328.57" x2="627" y2="821.5" gradientUnits="userSpaceOnUse">
      <stop stop-color="#008B8B"/>
      <stop offset="1" stop-color="#7C5CFC"/>
    </linearGradient>
  </defs>
</svg>
