<svg width="46" height="46" viewBox="0 0 46 46" fill="none" xmlns="http://www.w3.org/2000/svg">
<circle cx="23" cy="23" r="23" fill="#2C2C2C"/>
<path d="M18.828 31.8385C16.4623 31.8385 14.3594 31.5099 12.5194 30.8528C10.6794 30.1737 9.22274 29.199 8.14941 27.9285C7.09798 26.658 6.57227 25.1247 6.57227 23.3285C6.57227 21.4447 7.09798 19.8675 8.14941 18.5971C9.22274 17.3266 10.6794 16.3737 12.5194 15.7385C14.3594 15.1033 16.4623 14.7856 18.828 14.7856C21.4566 14.7856 23.7237 15.1471 25.6294 15.8699C27.557 16.5709 29.0356 17.5675 30.0651 18.8599C31.1166 20.1304 31.6423 21.6199 31.6423 23.3285C31.6423 24.599 31.3466 25.7599 30.7551 26.8114C30.1637 27.8409 29.3094 28.739 28.1923 29.5056C27.0751 30.2504 25.728 30.8309 24.1508 31.2471C22.5737 31.6414 20.7994 31.8385 18.828 31.8385ZM21.7851 26.8442C23.4499 26.8442 24.9723 26.7456 26.3523 26.5485C27.7542 26.3295 28.8713 25.968 29.7037 25.4642C30.558 24.9604 30.9851 24.2485 30.9851 23.3285C30.9851 22.3866 30.558 21.6637 29.7037 21.1599C28.8713 20.6561 27.7542 20.3056 26.3523 20.1085C24.9723 19.9114 23.4499 19.8128 21.7851 19.8128C19.5508 19.8128 17.8204 20.1085 16.5937 20.6999C15.367 21.2695 14.7537 22.1456 14.7537 23.3285C14.7537 24.0952 15.0275 24.7414 15.5751 25.2671C16.1227 25.7928 16.9223 26.1871 17.9737 26.4499C19.0251 26.7128 20.2956 26.8442 21.7851 26.8442ZM30.9851 15.2785H38.8708V31.3785H31.4451C31.4451 31.3785 31.4013 31.1266 31.3137 30.6228C31.248 30.119 31.1713 29.3961 31.0837 28.4542C31.018 27.5123 30.9851 26.4061 30.9851 25.1356V15.2785Z" fill="#F9F9F9"/>
</svg>
