<svg width="48" height="48" viewBox="0 0 48 48" fill="none" xmlns="http://www.w3.org/2000/svg">
<rect width="48" height="48" fill="url(#paint0_linear_461_6168)"/>
<path fill-rule="evenodd" clip-rule="evenodd" d="M12.7851 22.3161C19.7822 19.2774 24.4402 17.2582 26.7793 16.2786C33.4365 13.4998 34.8359 13.02 35.7355 13C35.9354 13 36.3753 13.04 36.6751 13.2799C36.915 13.4798 36.975 13.7397 37.015 13.9396C37.055 14.1395 37.095 14.5594 37.055 14.8792C36.6951 18.6776 35.1358 27.8938 34.3361 32.132C33.9962 33.9313 33.3365 34.531 32.6968 34.591C31.2974 34.711 30.2378 33.6714 28.8984 32.7918C26.7793 31.4123 25.5997 30.5527 23.5406 29.1933C21.1616 27.6339 22.701 26.7743 24.0604 25.3748C24.4202 25.015 30.5577 19.4173 30.6776 18.9175C30.6976 18.8576 30.6976 18.6177 30.5577 18.4977C30.4177 18.3778 30.2178 18.4177 30.0579 18.4577C29.838 18.4977 26.4794 20.7368 19.9421 25.1549C18.9825 25.8147 18.1229 26.1345 17.3432 26.1145C16.4835 26.0945 14.8442 25.6347 13.6047 25.2349C12.1054 24.7551 10.9059 24.4952 11.0058 23.6556C11.0658 23.2157 11.6655 22.7759 12.7851 22.3161Z" fill="white"/>
<defs>
<linearGradient id="paint0_linear_461_6168" x1="24" y1="0" x2="24" y2="48" gradientUnits="userSpaceOnUse">
<stop stop-color="#2AABEE"/>
<stop offset="1" stop-color="#229ED9"/>
</linearGradient>
</defs>
</svg>
